<?xml version="1.0" encoding="UTF-8"?><svg id="Capa_1" xmlns="http://www.w3.org/2000/svg" viewBox="0 0 140.29 116.97"><defs><style>.cls-1{fill:#fff;fill-rule:evenodd;}.cls-2{fill:none;stroke:#fff;stroke-miterlimit:22.93;stroke-width:.71px;}</style></defs><path class="cls-1" d="m32.96,4.38c-4.38,4.39-7.18,10.05-12.02,14.08-1.38,1.16-2.89,2.2-4.38,3.71,1.22-8.67,7-16.65,16.41-17.79h0Z"/><path class="cls-1" d="m107.33,4.38c4.38,4.39,7.18,10.05,12.02,14.08,1.38,1.16,2.89,2.2,4.38,3.71-1.22-8.67-7.01-16.65-16.41-17.79h0Z"/><path class="cls-1" d="m20.8,10.15c-6.49,3.46-5.26,11.83-7.53,17.07l.21.04c2.15-5.17,10.48-6.41,12.86-12.3-.16,10.95-11.49,13.01-16.09,21.43-.3-9.71-2.42-22.82,10.55-26.23h0Z"/><path class="cls-1" d="m119.49,10.15c6.49,3.46,5.26,11.83,7.53,17.07l-.21.04c-2.15-5.17-10.48-6.41-12.86-12.3.16,10.95,11.49,13.01,16.09,21.43.3-9.71,2.42-22.82-10.55-26.23h0Z"/><path class="cls-1" d="m9.46,19.66c-3.5,6.39.25,12.69-1.05,23.3.06.06.06.25.26.18,2.03-9.25,9.72-10.73,11.74-15.36-1.39,10.48-10.66,15.71-12.26,25.22-.45-4.93-11.44-21.04,1.32-33.33h0Z"/><path class="cls-1" d="m130.82,19.66c3.49,6.39-.25,12.69,1.05,23.3-.06.06-.06.25-.26.18-2.02-9.25-9.72-10.73-11.74-15.36,1.39,10.48,10.66,15.71,12.26,25.22.45-4.93,11.44-21.04-1.32-33.33h0Z"/><path class="cls-1" d="m2.13,37.37c-1.39,6.76,4.95,14.74,6.55,24.03.11.05.19-.05.23-.13-.54-7.18,1.54-10.62,5.22-15.95.9-1.45,1.41-3.07,1.86-4.71,1.81,2.44.08,7.78-1.81,14.46-1.34,4.72-3.25,8.72-2.72,15.74-2.32-2.82-9.22-11.32-9.86-14.61-2.03-6.35-2.41-12.72.54-18.84h0Z"/><path class="cls-1" d="m138.15,37.37c1.38,6.76-4.95,14.74-6.55,24.03-.11.05-.19-.05-.23-.13.54-7.18-1.55-10.62-5.22-15.95-.9-1.45-1.41-3.07-1.86-4.71-1.82,2.44-.08,7.78,1.81,14.46,1.34,4.72,3.25,8.72,2.72,15.74,2.32-2.82,9.23-11.32,9.87-14.61,2.03-6.35,2.41-12.72-.54-18.84h0Z"/><path class="cls-1" d="m.39,57.95c.88,7.64,10.43,13.45,14.5,20.48.11.04.16-.05.17-.12-4.01-8.39.6-14.64.44-21.63,4.85,10.69.85,18.54,6.4,30.42C7.95,79.75-1.75,71.18.39,57.95H.39Z"/><path class="cls-1" d="m139.9,57.95c-.88,7.64-10.43,13.45-14.5,20.48-.12.04-.16-.05-.17-.12,4.01-8.39-.59-14.64-.44-21.63-4.85,10.69-.85,18.54-6.4,30.42,13.95-7.35,23.65-15.92,21.51-29.15h0Z"/><path class="cls-1" d="m4.73,76.88c1.18,2.76,4.18,5.58,8.14,7.9,5,2.94,9.94,3.94,14.6,8.4-4.46-5.28-5.36-10.02-7.43-22.75,3.75,3.62,5.88,8.16,7.76,13.42,1.77,4.94,2.74,10.54,7.57,14.6-3.62-1.48-11.36-1.62-17.72-4.73-6.77-3.31-11.57-9.67-12.92-16.83h0Z"/><path class="cls-1" d="m135.56,76.88c-1.18,2.76-4.18,5.58-8.13,7.9-5,2.94-9.94,3.94-14.6,8.4,4.46-5.28,5.36-10.02,7.43-22.75-3.75,3.62-5.88,8.16-7.76,13.42-1.77,4.94-2.75,10.54-7.58,14.6,3.63-1.48,11.36-1.62,17.72-4.73,6.77-3.31,11.57-9.67,12.91-16.83h0Z"/><path class="cls-1" d="m14.95,93.64c7.39,7.7,19.94,5.04,26.76,6.77-7.29-3.3-9.22-9.76-12.25-15.57,7.41,2.86,11.23,14.36,24.38,16.56-6.93.87-15.42,5.96-26.6,3.06-5.58-1.79-9.52-5.21-12.29-10.81h0Z"/><path class="cls-1" d="m125.33,93.64c-7.4,7.7-19.94,5.04-26.76,6.77,7.29-3.3,9.22-9.76,12.25-15.57-7.4,2.86-11.22,14.36-24.38,16.56,6.93.87,15.42,5.96,26.6,3.06,5.58-1.79,9.52-5.21,12.29-10.81h0Z"/><path class="cls-1" d="m105.78,111.71c-7.38,2.81-15.24.4-21.02-4.07-2.63-1.73-7.64-5.22-11.24-4.22,5.6,2.66,10.3,6.11,15.09,10.8-.82.92-2.03,1.93-3,2.72-4.58-5.05-9.7-9.51-15.4-12.34-4.73,1.92-12.28,8.37-15.44,12.37l-3.16-2.8c4.75-4.86,9.54-7.93,15.26-10.64-5.49-1.29-8.55,2.25-12.56,4.96-4.97,3.52-12.8,5.94-18.84,3.52-3.22-1.27-6.64-3.19-8.85-6.3,4.71,3.32,13.63,2.68,18.99.53,7.22-3.2,14.54-7.28,24.56-4.03,7.63-2.59,15.02-.76,21.92,2.99,7.28,3.18,13.91,4.55,21.46.57-2.36,3-4.44,4.74-7.77,5.94h0Z"/><path class="cls-2" d="m69.34.35c26.57,0,48.12,21.55,48.12,48.12s-21.55,48.12-48.12,48.12-48.12-21.55-48.12-48.12S42.77.35,69.34.35h0Zm0,9.44c21.36,0,38.68,17.32,38.68,38.68s-17.32,38.68-38.68,38.68-38.68-17.32-38.68-38.68S47.98,9.79,69.34,9.79h0Zm0,9.72c15.99,0,28.96,12.97,28.96,28.96s-12.97,28.96-28.96,28.96-28.96-12.97-28.96-28.96,12.97-28.96,28.96-28.96h0Zm0,10.33c10.28,0,18.62,8.34,18.62,18.62s-8.34,18.62-18.62,18.62-18.62-8.34-18.62-18.62,8.34-18.62,18.62-18.62h0Z"/><path class="cls-2" d="m69.34,39.43c4.99,0,9.04,4.17,9.04,9.31s-4.05,9.31-9.04,9.31-9.04-4.17-9.04-9.31,4.05-9.31,9.04-9.31h0Z"/><path class="cls-2" d="m69.34.58v95.79M35.47,14.6l67.73,67.73"/><line class="cls-2" x1="117.23" y1="48.47" x2="21.44" y2="48.47"/><line class="cls-2" x1="103.2" y1="14.6" x2="35.47" y2="82.34"/><path class="cls-1" d="m28.87,58.74h-.58l-.13-.24-.36-.05-.52.02-.4.04-.27.29-.15.27-.16.22v.36l-.16.27-.18.29-.18.25v.45l-.09.38.02.47v.43l.02.36.18.27.02.38.13.38.18.27.13.4.24.31.32.38.07.4.6.14.42.11.4.4.18.27.31.31.25.2.4.11h.4l-.07-.31.22-.09.47.27.29.36.38.25.24.29.25.22.47.29.24.07.52.2.29.22.25.27.02.31.25.38.2.31.38.69.32.18,1.39.09.67,1.23,1.5,1.01,2.15,2.19,1.12.09.34.13,3.06.09.45.27.24.18.34.09.4.02h.34l.63-.11.38-.18.31-.25.32-.29.49-.04.89-.04.27-.29.76-.02,1.05.02.58-.58-.02-.87-.85-1.34-.81-1.12-.49-.71-.45-.8-.58-.67-.63-.63-.54-.4.02-.65.43-.34.18-.51.07-.42v-.58l-.09-.47-.2-.22-.27-.74-.16-.36-.29-.27-.25-.13.11-1.88-.22-.13.18-1.56-.31-.18-.07-.62-.25-.18.05-1.39-.34-.36v-.58l-1.72-2.06-.09-1.47-.25-.18.04-.43.29-.31.36-.25.54-.18.74-.67.07-.92h1.18l.45-.33.11-.58-.22-.74-.2-.45-.11-.38-.25-.2.05-.49.36-.27.36-.05.25-.25,1.19.02.24.29.36.29.11.54.09.87-.22.16.02,1.56.27.45-.24.27-.38.47h-.83l-.22-.31-.33-.07-.13-.25-.69.09.02.78.18.31.04.89-.42.11-.34.31-.42.16.11.47.42.4.29.4.36.18.29-.05.03-.25.26-.11v-.35s.05-.93.05-.93l.24-.16.13-.24.2.03.06-.27.8.03.02.2.82-.02.26.08h.44l.37-.02.38.07.09.19.9.03.19.23.73.04.72.86.94.11,1.32,1.86.52.07.13-.78.33-.02v.36s.2.17.2.17l.06,1.68.28.02,1.42-1.17.02-1.15h.25s.04-.27.04-.27h.58l.56.53.79.08.67.04.65.02.76-.09.45.04.96-.29.45-.07.07-.27,1.23.04.63-.6.07-.6.02-.49.4-.67.15-.47.29-.31.02-.43.2-.22.02-.27-.29-.13v-.65l-.49-.18-.07-.22h-2.75l-.58.6.02,1.12-.54.54-.4.09-.2.49-.24.27-.05.34-.81-.02-.02-.27h-.24s.02-.26.02-.26l.78-.05.11-.21.2-.04.03-.33.04-.32v-.44s.26-.22.26-.22l.09-.38.31-.25.18-.16.04-.49-.33-.07v-.27l.02-.46-.9-.14-.13-.54-.22-.16.09-.49.25-.09.09-.98.22-.45.2-.34.27-.36.36-.36.43-.33.31-.36.2-.2.4-.13.42-.13.16-.27.4-.09.4-.18.38-.31.24-.22.4-.31.09-.25-.02-.29v-.54s-.27-.13-.27-.13v-1.1s.26-.02.26-.02l.12-.22h.68s.01.48.01.48l-.21.02-.12-.11-.26.04-.19.2.02.27v.3l.16.22.29.22.25.36.27.25.45.25.4.13.31.27.61-.02.45.09.45.25.4.4.38.4.36.29.13.29.42.02.11.47v.85l.31.11-.05.58-.25.16-.22.16-.18.25-.15.2-.05.36.05.36.24.16.2.25.29.24.34.13.09.27.25.31-.09.45v.31l.07.31.05.4.27.31.31.34v.42l-.11.38-.29.29-.13.34.04.36-.24.22-.4-.04h-.44l-.45.07-.45.11-.38.18-.31.1-.19.27-.14.3-.08.4-.15.22-.16.26v.55s-.21.2-.21.2l-.38.4-.2.36-.27.31-.22.16-.2.27-.13.34-.16.29-.29.31-.25.4-.02.36-.36.2-.11.38-.02.36v.38l-.22.16-.04.38.07.31.03.31.04.38.29.2.18.2v.25l-.1.19h-.43s-.3.02-.3.02l-.23.11-.2.12-.18.09-.02.17-.12.12-.03.19.1.07.03.18.19.06.16.08v.23s-.11.03-.19.03-.34.01-.34.01l-.03.26-.05.22.02.17-.05.21-.25.07-.07.19h-.22s-.4-.01-.4-.01l-.14.17-.07.19-.02.25-.18.2-.11.34-.24.25-.27.31v.43l-.18.31-.34.22-.38.09-.2.27-.27.18-.32.18-.24.31v.34l-.29.27-.16.33.09.36-.27.16-.25.22-.36.27-.05.43v.38l.13.29.38.42.24.18.03.45.2.25.27.38.27.33.14.29.29.29.32.07.29.31.49.11.61.27.49.29.4.09.25.29.29.25.4.18.24.38.25.11.38.22.38.31.42.27.36.29.29.31.38.2.27.25.22.24.31.2.45.13,2.57.16.09.34.09.42-.2.13-.24.27-.25.38-.11.45.13.25.11.25-.05.29.27.4.24.04.24.34.32.38.47.09.36.25.42.16.34.36.38.25.2.4.31.38.38.31.13.2.2.22.27.36.27.18.25.29.31.25.38.2.29.2.38.11.29.2.27.18.29.22.25.36.49.25.27.18.4.2.31-.07.34.02.42-.2.18-.18.27-.31.58-.34.38-.22.49-.27.38-.42.4-.27.45-.4.43-.4.47-.38.43-.47.31-.4.31-.49.38-.54.31-.49.13-.47.27-.49.29-.47.11-.47.05-.56.25-.38.18-.4.18-.49.05-.4.11-.4.12-.24v-.67l-.2-.33-.22-.22v-.4l.22-.13.14-.45.18-.16.11-.36.25-.16.11-.31.2-.24.18-.29.16-.34-.02-.29-.2-.27-.2-.27-.27-.18-.2-.13-.36-.2-.13-.27-.29-.16-.27-.02-.18-.2-.2-.22-.25-.11-.15-.2.02-.29.02-.4.18-.22.18-.33.02-.27.27-.2.29-.13.29.07.22.22.18.22.35.22.12.22.29.29.27.04.02.36.29.16c.18.16.32.42.32.42l.24.22.2.11.18.4.25.22.13.38.13.29.02.33.18.31.25.27.27.22.25.11.45-.07.31-.11.27-.02.42-.04.4-.02.38-.04.05-.25.38-.04v-.29l-.07-.49.11-.42v-.47l-.27-.34-.04-.43-.27-.2-.05-.47.03-.51v-.38l-.25-.22v-.43l-.2-.25-.29-.2-.22-.24-.29-.11-.25-.2h-.34l-.47.02v.27s-.05.21-.05.21v.21s-.09.12-.09.12l-.26-.03-.16-.1v-.14l-.07-.12-.16-.09-.13-.18-.08-.14-.24-.1-.12-.2-.16-.19-.21-.13-.18-.2-.16-.13-.23-.09-.12-.26-.17-.13v-.43s-.14-.27-.14-.27l-.17.02-.08-.21.04-.35-.15-.22-.1-.3-.3-.05h-.27l-.24-.17v-.28s-.11-.3-.11-.3l-.17-.17-.1-.28-.05-.18-.21-.09-.24.04-.26-.08-.09.16.03.22-.2.13v.2s-.18.19-.18.19l-.09.23-.07.26v.29s-.01.23-.01.23l-.1.24-.26.21-.19.28-.45.25h-.45l-.69.09-.54-.2-.65.09-.45-.11-.69-.07-.33-.22h-.43l-.52-.31h-.54l-.4-.36-.38.02-.47-.09-.34.07-.09-.45-.47-.25-.02-.29.45-.11.36.07.42-.05h.49l.56.11.45.09.45.11.25.4.42.02.45.11.45.04.47.07.41.09.33.16.38.09h.58l.45-.04.27-.2.02-.36.29-.4v-.43l.25-.43.29-.38.14-.38-.09-.27.13-.49.07-.36.16-.18-.02-.36.11-.27.07-.6.09-.27-.07-.51-.07-.49-.22-.36-.2-.4c-.22.02-.4-.02-.4-.02v-.25l.09-.25.27-.09.05-.17.18-.18.06-.24.15-.19.11-.17.11-.19.16-.17.22-.19.06-.18h.25l.08.2.18.13.07.18.16.07.18-.05h.18s.16-.01.16-.01l.09-.16.07-.18.04-.18v-.17s.01-.18.01-.18l.45.02.26-.02.2.16h.29l.22-.11.32.05h.33l.32-.07.38.07.4-.05.41-.02.27-.25c.02-.27.29-.33.29-.33l.36.07.11.24.27.11.29.02.32.02.25.04.24.05.22.02h.18l.19.03h.2s.13-.08.13-.08v.17s.16.09.16.09h.12s.17.08.17.08l.24-.07.11-.14-.07-.15s.01-.13.06-.19c.04-.06.07-.17.07-.17l.1-.18.16-.14s.11.08.18.08.12-.07.19-.07.19.11.19.11l.26-.05.08-.13.17-.06.13-.09v-.25l.12-.25-.1-.13.05-.25-.13-.18-.19-.22-.27-.29.07-.22-.27-.18-.18-.18.16-.45.04-.34.11-.25c.2-.11.2-.43.2-.43l-.13-.38.07-.25.18-.31-.16-.29.11-5.21-.16-.25-.03-.36-.07-.47.02-.4v-.45l-.25-.22.02-1.72.22-.22.03-.56-.29-.27-.05-.31-.56.02v.33c-.24.05-.24.4-.24.4l-.16.25-.13.29-.09.47-.02.27-.47.02v.62l-.11.34-.27.2.02.33-.14.27-.13.33-.02.87.04.83.22.25-.04,1.41s.02.54.02.65.13.63.13.63l-.24.69-.11,1.9-.27.18-.2.4.04.49-.02.38-.22.04.06.75-.18.19-.17-.08-.06-.17v-.18s-.07-.18-.07-.18l-.04-.39-.14-.2-.2-.29s-.13-.17-.21-.21c-.08-.05-.28-.2-.28-.2l-.24-.18-.2-.33s-.18-.1-.22-.16-.2-.22-.2-.22v-.32l-.11-.47-.27-.31-.13-.33-.2-.24.21-.12h.12s.19.03.19.03h.25s.25-.11.25-.11l.18.1.4.02.22-.16.04-.25.14-.21.15-.23-.05-.32.06-.26v-.2l.05-.22.08-.17-.03-.18.1-.12v-.53s-.33-.1-.33-.1l-.27.02-.14-.02-.04-.21-.15-.1.02-.24-.17-.03v-.51s.06-.25.06-.25l.17-.03.08-.22.08-.17.19.02.07-.2h.25l.17-.11.25.12.18-.17.07-.16.18-.03.07-.3.16-.25.22-.43.24-.45.14-.41.09-.12.09-.06.11-.05v-.15s0-.13,0-.13l.04-.27v-.45s.18-.07.18-.07l.08-.28.16-.11.09-.21.02-.49-.07-.4.03-.31-.16-.18-.04-.38.04-.72-.02-.43.22-.11.11-.36-.07-.52-.02-.33.02-.29-.22-.18-.07-.38-.02-.47-.22-.13-.18-.2-.2-.03-.19-.11-.12-.13h-.19s-.1-.29-.1-.29l.02-.22.21-.08.16-.14-.06-.15.05-.22v-.31l-.11-.28-.18.02-.26-.12-.14-.16.04-.23.02-.27v-.67l-.24-.1-.08-.22-.31.02-.16.03-.35-.02-.29.07-.14.07-.15.14-.31-.02-.17-.03-.1-.22-.02-.32.02-.31-.25-.06v-.26s-.11-.25-.11-.25l-.2-.03-.23-.32-.2-.11-.59-.58-.44-.45-.36-.8-.27-.47-.2-.34-.27-.45-.38-.38-.32-.34-.16-.65-.13-.36-.02-.51-.12-.19-.08-.29-.1-.27-.2-.17-.04-.24-.14-.13-.17-.04-.06-.11-.12-.02-.12.02-.18-.03h-.15l-.08-.11-.13-.16-.24-.02-.17-.04-.06-.14-.08-.08-.17-.19-.23-.19-.1-.16-.12-.13-.31-.21-.14-.19-.2-.22-.25-.19-.13-.09-.08-.18h-.64s.02.16.02.16l.13.17-.12.17.14.17v.19s.2.18.2.18l.17.27.07.26-.09.37.09.21.03.27.03.2.24.2.11.19.19.16.2.32.07.19.07.29.17.16.15.27v.31s.18.13.18.13c0,0,.07.13.07.19s.1.26.1.26l.07.25s.08.15.14.2c.07.06.11.19.11.19l.16.17.21.15v.25l.25.63.09.38.29.31.07.38.18.36.29.22.11.31.24.29.02.34.32.11.27.29.27.34.29.36.31.36s.25.38.32.49c.07.11.33.47.33.47,0,0,.25.07.36.18.11.11.27.34.27.34l.32.45.11.38v.35s-.04.25-.04.25v.21s-.12.3-.12.3l-.12.18s-.1.2-.1.26-.16.18-.16.18c0,0-.09.36-.08.41.01.06.03.11.05.18.01.07.05.1.13.15.08.04.18.12.18.12l.24.17.29.15.31.16.29.22.42.2.34.2.36.42.42.43.32.43.16.58.27.69.07.47.09.47.13.1v.38s-.06.2-.06.2l-.04.21-.08.3-.17.21v.26s-.2.15-.2.15l-.16.18-.16.19-.26.15-.15.17-.18.09h-.58s-.02-.33-.02-.33l-.12-.12.11-.17.15-.23.06-.18.14-.13.08-.11.1-.24.11-.16.1-.19v-.28l.07-.19.13-.16.03-.16-.11-.22-.13-.11s-.14-.08-.13-.16c0-.08.04-.11-.01-.16-.06-.04-.09-.08-.09-.08,0,0-.07-.07-.12-.12s-.15-.21-.15-.21c0,0-.01-.09-.16-.14-.16-.06-.21-.11-.21-.11l-.09-.15-.2-.17-.2-.11-.15-.15-.14-.11s-.16-.02-.22-.01c-.07.01-.23.03-.23.03h-.19s-.2.19-.2.19l-.18.18-.07.15-.19.08h-.64l-.15-.1s-.04-.15-.04-.2v-.27l.11-.1.1-.11.04-.11-.08-.1-.08-.11v-.13l-.14-.08-.09-.12-.35-.34-.2-.29-.04-.33-.29-.27-.16-.29-.29-.31s-.16-.29-.31-.27c-.15.02-.36.02-.36.02l-.38-.27-.25.07-.26.08s-.37-.12-.45-.12c-.08,0-.36.01-.43.01s-.06.02-.28.02-.44-.01-.44-.01c0,0,0-.1-.18-.09-.18.01-.33-.02-.43.02-.1.05-.19.07-.25.08-.07.01-.23-.11-.23-.11h-.25s-.11-.02-.17-.02-.15,0-.19-.06c-.04-.06-.13-.13-.13-.13,0,0-.09-.09-.19-.07-.1.02-.36.11-.36.11l-.15.27-.24.22-.17.19-.14.27-.11.2-.03.37-.07.33.02.22-.06.18-.21-.03-.21-.02-.04-.17-.15-.19-.07-.17-.08-.17.04-.23-.02-.33v-.26l-.15-.15-.23-.18v-.17s.01-.24.01-.24l-.16-.11-.12-.26v-.24l-.18-.11-.1-.18v-.25l-.02-.16-.1-.17-.06-.16-.25.06-.16.11s-.22.03-.24.09-.06.19-.06.19l-.1.08-.18.22-.17.17-.18.17-.27.07-.23.19-.02.29-.11.05-.02.22.1.11.09.1.19.07h.17l.11.02c.07.1.08.27.08.27l-.07.23-.12.03h-.18l-.06.12-.13.15-.26.26-.23.08-.25.08-.1.21-.21.12-.23.07-.21.21-.15.19-.23.11-.18.18-.16.14-.2.07-.19.25-.09.17-.22.14-.05.22-.14.18-.18.18-.22.03h-.6s-.2-.16-.2-.16l-.09-.17-.18-.17-.18-.18-.13-.12-.28-.13-.13-.16h-.2l-.12.12-.16.05h-.23s-.09.17-.09.17h-.19s-.1.18-.1.18h-.2l-.1-.17v-.22s.06-.19.06-.19l.11-.02h.13s.11-.13.11-.13l.1.11.18-.06.07-.12s0-.11.06-.12c.06-.01.21-.01.21-.01l.18-.12.11-.06.1-.13h.18s.16-.16.16-.16l.21-.11.15-.14s.06-.15.08-.2c.02-.06.16-.17.16-.17l.17-.18.1-.13.07-.32.11-.1.16-.15.03-.26.08-.27-.11-.17.05-.31v-.32l-.17-.21-.17-.18-.07-.22-.17-.06-.23.11-.26.07v.13l-.21.19-.08.17-.19.09-.15.18-.07.12-.18.16-.2.18-.18.07-.23.18-.15.16-.22.09-.18.1-.41.03-.12-.17-.21-.16-.2-.2-.2-.16-.2.03-.18-.18-.26-.13-.22.08-.21-.09h-.31s-.09.14-.09.14c0,0-.11.01-.22.01s-.49.01-.49.01l-.36.06-.13.13-.28.03-1.28.04h-.21l-.27.16-.12.16h-.46l-.15-.22-.05-.21-.15-.12v-.2l-.11-.17h-.18s-.2.1-.2.1l-.09.18-.12.18-.23.2-.18.33.08.18-.18.23v.26s.03.37.03.37l-.07.24-.2.16-.36.26-.16.27-1.04-.02-.36-.27-.34.16h-.43l-.38.02-.09-.27-.3-.18-.23-.03-.44.1-.18.14-.14.21-.26-.09-.17-.26-.02-.19.06-.23v-.29s-.12-.27-.12-.27l-.17-.16s-.11-.06-.13-.11c-.02-.06-.38-.16-.38-.16l-.13-.12-.24-.14-1.28-.37-.38-.02-.52-.09-.29-.18-.69-.13-.22-.22h-.63l-.47.07-1.25,1.27-.33.25-.4.16-.38.11-.63.54-.22.36-.34.38-.4.65-.4.11-.38-.02-.38.09-.36.31-.31.36.02.36-.02.42-.29.22-.34-.04h-.36l-.29.16-.38.02-.6.67-.24.27-.16.45-.24.38-.31.42s-.29.29-.29.4-.25.6-.25.6c0,0-.07.27-.05.38.03.11.05.51.05.51l-.02.85.07.52.27.42.05.52.27.29-.05.51-.07.58-.31.4-.38.33-.27.27-.27.18-.36.31-.33.42.04.45s0,.33-.09.45c-.09.11-.05.4-.05.4l-.12.16-.03.25v.24s.02.24.02.24l.12.1.13.2-.02.21s-.05.3-.05.36.03.34.03.34l-.16.16-.28.13-.17.17h-.19s-.27-.1-.27-.1l-.18-.21-.18-.19s-.2-.09-.28-.09c-.08,0-.18-.06-.18-.06l-.3-.22-.22-.17-.1-.2h-.39l-.29-.2-.32-.22-.49-.26-.2-.24-.5-.16-.23.09-.4.09-.29.28-.27.29-.3.16-.21.33-.36.22-.32.21s-.39.26-.4.32c-.01.07-.29.4-.29.4l-.2.26-.25.26-.07.28-.1.14s-.12.08-.11.12c.02.04.06.2.06.2l-.19.09-.05.17s.02.09.04.13c.01.04.07.1.07.1l.08.41v.48s.01.68.01.68l-.05.57-.13.22-.22.28-.15.19v.23s-.46.06-.46.06h-.68s-.14-.24-.14-.24c0,0-.21-.09-.31-.08-.1.01-.45.01-.45.01l-.64-.04-.39.02-.13-.27h-.32l.04-.2-.08-.29-.2-.15-.07-.2h-.47l-.46-.03-.39.03-.2.18-.17.25v.2s-.19.11-.19.11l-.11.08h0Zm30.11-8.35h-.28l-.24-.02v-.24l.2-.06.1-.24.21-.06.21-.02-.07-.21.1-.31.02-.26.13-.29.12-.14.3-.12.07-.2h.45s.27-.11.27-.11l.29-.02.37.1h.28l.21.16.14.21.1.24.12.18.09.19.02.17.16.15s.18.04.23.04c.06,0,.28.03.28.03l.21.05.07.22.05.23-.21.04-.19-.16-.11-.08-.15.04-.08-.11h-.17s-.22,0-.22,0h-.32s-.27.03-.27.03l-.19-.07-.22.07v.18s-.31-.05-.31-.05l-.18-.12-.27-.03-.11.07-.16.19h-.22s-.3.03-.3.03h-.29l-.22.11-.04.2h0Zm21.28,5.75h.29s.13.18.13.18l.17.15v.18s.18.14.18.14l.28.07.05.17v.19s.2.13.2.13l.26.12.11.23.21.23s.06.16.06.28-.11.42-.11.42l-.12.17-.19-.08-.12-.17s-.08-.21-.16-.21-.26-.08-.26-.08v-.26s-.12-.17-.12-.17h-.21s-.05-.16-.05-.16l-.07-.13-.18.02-.18.06s-.08.13-.09.19c-.01.06-.19.06-.19.06v-.21s.08-.19.08-.19l.05-.2-.14-.16.06-.31v-.27s-.07-.25-.07-.25l.12-.15h0Zm-3.01,5.19l.32.05.22-.17.16-.15.23-.05.37-.22.21-.16.31-.16.18-.17v-.33l-.41-.02-.36.18-.27.16-.39.14-.06.28-.3.11-.2.13-.02.36h0Zm8.07-.52l.02.29.22.03.13-.1h.27l.19.09h.22s.18-.04.18-.04l.13-.12.02-.18.08-.1.16-.14.14-.12.08-.13.16-.17v-.16s.11-.18.11-.18l-.06-.2-.29.02s-.07.08-.06.13c.01.06-.05.23-.05.23l-.16.02-.17.05s-.12.04-.12.11v.22l-.08.15-.19.12v.13h-.27l-.23-.1-.12-.1-.13.12-.18.13h0Z"/><polygon class="cls-1" points="90.29 23.09 90.11 22.91 89.85 22.86 89.75 22.74 89.63 22.35 89.44 22.33 89.43 22.04 89.45 21.57 89.28 21.41 89.11 21.18 88.9 21.08 88.87 20.03 89.07 19.99 89.18 19.79 89.16 19.6 88.95 19.48 88.73 19.27 88.54 19.13 88.35 18.76 88.2 18.43 87.94 17.94 87.75 17.69 87.58 17.23 87.39 16.98 87.41 16.62 87.41 16.11 87.47 15.89 87.69 15.85 87.69 15.46 87.75 15.14 87.92 14.97 88 14.76 88 14.4 88.01 14.11 88.2 13.91 88.3 13.63 88.56 13.43 88.78 13.3 89.05 13.3 89.25 13.26 89.41 13 89.62 13.04 90.02 13.06 90.34 13.02 90.73 13.02 91.04 13.04 91.32 13.08 91.5 13.25 91.83 13.27 92.07 13.3 92.26 13.35 92.35 13.54 92.56 13.57 92.78 13.58 93.03 13.58 93.2 13.65 93.23 13.85 93.45 13.91 93.54 14.06 93.59 14.21 93.72 14.23 93.88 14.34 94.11 14.49 94.3 14.53 94.48 14.57 94.67 14.77 94.96 14.95 95.11 15.08 95.33 15.31 95.52 15.52 95.8 15.84 96.14 15.99 96.27 16.33 96.59 16.71 96.67 17.25 96.83 17.69 97.1 18.07 97.34 18.36 98.24 19.46 98.43 19.7 98.44 20.12 98.48 20.5 98.5 20.8 98.67 21.74 99.05 21.9 99.29 22.21 99.62 22.52 100.03 23.04 100.34 23.15 100.61 23.28 100.9 23.53 101.28 23.8 101.46 24.09 101.66 24.42 101.77 24.71 101.91 25.07 102.15 25.41 102.51 25.67 102.78 25.96 103.16 26.28 103.38 26.64 103.65 26.93 103.85 27.17 104.03 27.53 104.12 27.93 104.36 28.25 104.75 28.67 105.13 28.94 105.3 29.38 105.69 29.92 105.89 30.07 105.99 30.33 106.06 30.6 106.11 30.92 106.29 31.24 106.32 31.62 106.35 31.94 106.28 32.24 106.17 32.73 106.01 32.93 105.86 33.15 105.62 33.36 105.18 33.51 104.8 33.52 104.72 33.77 104.19 33.8 103.95 33.81 103.62 33.81 103.35 33.84 103.27 33.97 102.99 33.92 102.7 33.92 102.53 33.77 102.38 33.62 102.2 33.51 102.18 33.21 102.1 33 101.97 32.83 101.84 32.63 101.77 32.41 101.37 32.02 100.77 31.42 100.3 31.02 99.85 30.66 99.54 30.55 98.6 30.3 98.37 29.97 98.02 29.59 97.12 29.41 96.88 29.05 96.5 28.71 96.19 28.42 96.07 28.04 95.85 27.69 95.67 27.53 94.55 27.37 94.15 27.15 93.88 26.88 93.68 26.61 93.43 26.26 93.41 25.88 93.43 24.94 93.19 24.8 93.19 24 93.07 23.57 92.83 23.42 92.81 23.01 92.56 22.92 92.41 22.72 92.14 22.54 91.69 22.39 91.4 22.52 91.02 22.57 90.73 22.64 90.48 22.8 90.48 23 90.29 23.09 90.29 23.09"/><polygon class="cls-1" points="92.27 11.93 92.35 12.16 92.34 12.47 92.54 12.67 92.7 12.85 92.9 12.97 93.07 13.1 93.08 13.42 93.33 13.52 93.55 13.52 93.74 13.61 93.91 13.79 94.09 13.96 94.32 14.01 94.55 14.08 94.79 14.03 94.94 13.84 95.07 13.63 95.04 13.38 95.15 13.12 95.02 12.98 94.86 12.81 94.91 12.59 95.02 12.36 94.99 12.23 94.8 12.06 94.67 12.06 94.51 11.86 94.4 11.74 94.35 11.5 94.11 11.54 93.57 11.54 93.33 11.52 93.07 11.47 92.89 11.48 92.61 11.53 92.33 11.51 92.27 11.93 92.27 11.93"/><path class="cls-1" d="m71.95,7.16l.36.27.43.43.49.29.67.27h.63l.49-.02h.69l.4-.27h.63l.85.04.69-.09.47.09.54-.07.54-.16.4-.36.58-.36.07-.54-.31-.38-.43-.4-.31-.18s-.36-.22-.47-.27c-.11-.04-.47-.24-.47-.24l-.4-.02-.69.09-.58.11-1.1-.02-.27.29-.36.27-.74.16-.63.25-.74.14-.47.07h-.47l-.49.62h0Z"/></svg>